<mxfile host="app.diagrams.net" modified="2024-07-08T11:43:09.090Z" agent="Mozilla/5.0 (Windows NT 10.0; Win64; x64; rv:127.0) Gecko/20100101 Firefox/127.0" etag="bT2iHyFLr9l7KqZ0i8iy" version="24.6.4" type="device">
  <diagram name="Seite-1" id="4eF1Dyq21S53ineMH3n4">
    <mxGraphModel dx="1434" dy="746" grid="1" gridSize="10" guides="1" tooltips="1" connect="1" arrows="1" fold="1" page="1" pageScale="1" pageWidth="827" pageHeight="1169" math="0" shadow="0">
      <root>
        <mxCell id="0" />
        <mxCell id="1" parent="0" />
        <mxCell id="MYi6sRTybnQKfaTiDiRy-1" value="&lt;div align=&quot;left&quot;&gt;Html: Login&lt;/div&gt;&lt;div align=&quot;left&quot;&gt;Spielfeld&lt;/div&gt;&lt;div align=&quot;left&quot;&gt;Kartensammlung&lt;/div&gt;&lt;div align=&quot;left&quot;&gt;Css: Farblich an Western/Casino orientiert, Karten-div/img styling&lt;br&gt;&lt;/div&gt;" style="rounded=0;whiteSpace=wrap;html=1;fillColor=#dae8fc;strokeColor=#6c8ebf;" vertex="1" parent="1">
          <mxGeometry x="40" y="40" width="200" height="250" as="geometry" />
        </mxCell>
        <mxCell id="MYi6sRTybnQKfaTiDiRy-4" value="&lt;div&gt;PHP: Spielmechanik Blackjack(abgeändert)&lt;/div&gt;&lt;div&gt;&lt;span style=&quot;white-space: pre;&quot;&gt;&#x9;&lt;/span&gt;&amp;nbsp;&amp;nbsp; PVP (evtl PVE weil einfacher)&lt;br&gt;&lt;/div&gt;&lt;div&gt;&lt;span style=&quot;white-space: pre;&quot;&gt;&#x9;&lt;/span&gt;&amp;nbsp;&amp;nbsp; oder Belohnungsmechanik nach Spiel&lt;/div&gt;&lt;div&gt;&lt;span style=&quot;white-space: pre;&quot;&gt;&#x9;&lt;/span&gt;&amp;nbsp;&amp;nbsp; User Login&lt;br&gt;&lt;/div&gt;&lt;div&gt;SQL-Abfragen: User-Deck, User erhält Karten, Kartenmechanik/Wertigkeit, Kartensammlung vewalten(evtl. Karten-Bildelement, je nach Zeit)&lt;br&gt;&lt;/div&gt;" style="text;html=1;align=left;verticalAlign=middle;whiteSpace=wrap;rounded=0;fillColor=#dae8fc;strokeColor=#6c8ebf;" vertex="1" parent="1">
          <mxGeometry x="250" y="40" width="270" height="250" as="geometry" />
        </mxCell>
        <mxCell id="MYi6sRTybnQKfaTiDiRy-5" value="&lt;div&gt;Datenbank:&lt;/div&gt;&lt;div&gt;&lt;br&gt;&lt;/div&gt;&lt;div&gt;&lt;br&gt;&lt;/div&gt;&lt;div&gt;&lt;br&gt;&lt;/div&gt;&lt;div&gt;&lt;br&gt;&lt;/div&gt;" style="text;html=1;align=left;verticalAlign=middle;whiteSpace=wrap;rounded=0;" vertex="1" parent="1">
          <mxGeometry x="360" y="320" width="280" height="20" as="geometry" />
        </mxCell>
        <mxCell id="MYi6sRTybnQKfaTiDiRy-29" value="User" style="swimlane;childLayout=stackLayout;horizontal=1;startSize=50;horizontalStack=0;rounded=1;fontSize=14;fontStyle=0;strokeWidth=2;resizeParent=0;resizeLast=1;shadow=0;dashed=0;align=center;arcSize=4;whiteSpace=wrap;html=1;fillColor=#dae8fc;strokeColor=#6c8ebf;" vertex="1" parent="1">
          <mxGeometry x="50" y="340" width="300" height="180" as="geometry" />
        </mxCell>
        <mxCell id="MYi6sRTybnQKfaTiDiRy-30" value="+ID&lt;br&gt;+Username&lt;br&gt;&lt;div&gt;+Password&lt;/div&gt;&lt;div&gt;+High score/Gewonnen-Verloren Statistik&lt;br&gt;&lt;/div&gt;" style="align=left;strokeColor=none;fillColor=none;spacingLeft=4;fontSize=12;verticalAlign=top;resizable=0;rotatable=0;part=1;html=1;" vertex="1" parent="MYi6sRTybnQKfaTiDiRy-29">
          <mxGeometry y="50" width="300" height="130" as="geometry" />
        </mxCell>
        <mxCell id="MYi6sRTybnQKfaTiDiRy-31" value="&lt;div&gt;Kartensammlung(Deck)&lt;/div&gt;" style="swimlane;childLayout=stackLayout;horizontal=1;startSize=50;horizontalStack=0;rounded=1;fontSize=14;fontStyle=0;strokeWidth=2;resizeParent=0;resizeLast=1;shadow=0;dashed=0;align=center;arcSize=4;whiteSpace=wrap;html=1;fillColor=#dae8fc;strokeColor=#6c8ebf;" vertex="1" parent="1">
          <mxGeometry x="440" y="330" width="340" height="180" as="geometry" />
        </mxCell>
        <mxCell id="MYi6sRTybnQKfaTiDiRy-32" value="+UserNr(FK)&lt;br&gt;+KartenNr(FK)&lt;br&gt;+Anzahl" style="align=left;strokeColor=none;fillColor=none;spacingLeft=4;fontSize=12;verticalAlign=top;resizable=0;rotatable=0;part=1;html=1;" vertex="1" parent="MYi6sRTybnQKfaTiDiRy-31">
          <mxGeometry y="50" width="340" height="130" as="geometry" />
        </mxCell>
        <mxCell id="MYi6sRTybnQKfaTiDiRy-33" value="Kartenbestand" style="swimlane;childLayout=stackLayout;horizontal=1;startSize=50;horizontalStack=0;rounded=1;fontSize=14;fontStyle=0;strokeWidth=2;resizeParent=0;resizeLast=1;shadow=0;dashed=0;align=center;arcSize=4;whiteSpace=wrap;html=1;fillColor=#dae8fc;strokeColor=#6c8ebf;" vertex="1" parent="1">
          <mxGeometry x="250" y="570" width="290" height="180" as="geometry" />
        </mxCell>
        <mxCell id="MYi6sRTybnQKfaTiDiRy-34" value="+KartenID&lt;br&gt;+Name&lt;br&gt;&lt;div&gt;+Spielwert&lt;/div&gt;&lt;div&gt;+(Bild)&lt;br&gt;&lt;/div&gt;" style="align=left;strokeColor=none;fillColor=none;spacingLeft=4;fontSize=12;verticalAlign=top;resizable=0;rotatable=0;part=1;html=1;" vertex="1" parent="MYi6sRTybnQKfaTiDiRy-33">
          <mxGeometry y="50" width="290" height="130" as="geometry" />
        </mxCell>
        <mxCell id="MYi6sRTybnQKfaTiDiRy-35" value="" style="edgeStyle=entityRelationEdgeStyle;fontSize=12;html=1;endArrow=ERoneToMany;rounded=0;exitX=0.997;exitY=0.085;exitDx=0;exitDy=0;exitPerimeter=0;entryX=-0.006;entryY=0.086;entryDx=0;entryDy=0;entryPerimeter=0;" edge="1" parent="1" source="MYi6sRTybnQKfaTiDiRy-30" target="MYi6sRTybnQKfaTiDiRy-32">
          <mxGeometry width="100" height="100" relative="1" as="geometry">
            <mxPoint x="360" y="590" as="sourcePoint" />
            <mxPoint x="460" y="490" as="targetPoint" />
          </mxGeometry>
        </mxCell>
        <mxCell id="MYi6sRTybnQKfaTiDiRy-36" value="" style="edgeStyle=entityRelationEdgeStyle;fontSize=12;html=1;endArrow=ERoneToMany;rounded=0;" edge="1" parent="1">
          <mxGeometry width="100" height="100" relative="1" as="geometry">
            <mxPoint x="550" y="630" as="sourcePoint" />
            <mxPoint x="440" y="410" as="targetPoint" />
            <Array as="points">
              <mxPoint x="580" y="580" />
            </Array>
          </mxGeometry>
        </mxCell>
        <mxCell id="MYi6sRTybnQKfaTiDiRy-38" value="&lt;div align=&quot;left&quot;&gt;Ideensammlung&lt;/div&gt;&lt;div align=&quot;left&quot;&gt;&lt;ul&gt;&lt;li&gt;Zeitlimit für einen Zug&lt;/li&gt;&lt;li&gt;Jeder hat 52 Karten Standard franz. Blatt&lt;/li&gt;&lt;li&gt;Karten in der Sammlung erweitern das Spiel (Modifikatoren? Consumables?)&lt;br&gt;&lt;/li&gt;&lt;li&gt;Als twist: Herz und Karo ziehen ab (Rote Zahlen :))&lt;/li&gt;&lt;li&gt;Gewinnen durch 21 erreichen, stand und über Gegner oder Gegner busted&lt;br&gt;&lt;/li&gt;&lt;li&gt;5 Karten ziehen pro Runde. Nach spielen einer Karte eine nachziehen&lt;br&gt;&lt;/li&gt;&lt;li&gt;Schadensberechnung: Bei 21 erreicht: 2 Bei Mehr als gegner oder Gegner busted 1&lt;/li&gt;&lt;li&gt;Jeder 5Hp&lt;/li&gt;&lt;li&gt;Blackjack-Regeln ohne Split, Versicherung&lt;/li&gt;&lt;li&gt;Spezialkarten könnten haben z.B. &quot;Zählen als Gesicht oder As&quot; &quot;Entferne 1 nicht-As- nicht 10er Karte&quot; &quot;Wenn diese Karte gewinnt +1 Schaden&quot;&lt;/li&gt;&lt;li&gt;Weitere Spez.Karten: &lt;br&gt;&lt;/li&gt;&lt;li&gt;Jeder Bekommt 3 Karten bei Accounterstellung zufällig und eine bei jedem Sieg(oder auch bei &quot;Blackjack&quot; im Spiel&quot;&lt;br&gt;&lt;/li&gt;&lt;/ul&gt;&lt;/div&gt;" style="text;html=1;align=left;verticalAlign=middle;whiteSpace=wrap;rounded=0;" vertex="1" parent="1">
          <mxGeometry y="770" width="800" height="280" as="geometry" />
        </mxCell>
      </root>
    </mxGraphModel>
  </diagram>
</mxfile>
